# xmcd CD database file generated by Grip 3.2.0
# 
# Track frame offsets:
#       150
#       5235
#       17537
#       34938
#       53284
#       72244
#       92212
#       109373
#       129306
#       138342
#       162324
#       180301
#       194633
#       208761
#       239594
# 
# Disc length: 3471 seconds
# 
# Revision: 5
# Processed by: cddbd v1.5.1PL0 Copyright (c) Steve Scherf et al.
# Submitted via: Grip 3.2.0
# 
DISCID=d20d8d0f
DTITLE=OutKast - ATLiens
DYEAR=1996
DGENRE=Rap
TTITLE0=You May Die (Intro)
TTITLE1=Two Dope Boyz (In a Cadillac)
TTITLE2=ATLiens
TTITLE3=Wheelz of Steel
TTITLE4=Jazzy Belle
TTITLE5=Elevators (Me and You)
TTITLE6=Ova Da Wudz
TTITLE7=Babylon
TTITLE8=Wailin'
TTITLE9=Mainstream
TTITLE10=Decatur Psalm
TTITLE11=Millennium
TTITLE12=E.T. (Extraterrestrial)
TTITLE13=13th Floor - Growing Old
TTITLE14=Elevators (ONP 86 Remix)
EXTD=HSI
EXTT0=
EXTT1=
EXTT2=
EXTT3=
EXTT4=
EXTT5=
EXTT6=
EXTT7=
EXTT8=
EXTT9=
EXTT10=
EXTT11=
EXTT12=
EXTT13=
EXTT14=
PLAYORDER=
